<?xml version="1.0" standalone="no"?>
<!DOCTYPE svg PUBLIC "-//W3C//DTD SVG 20010904//EN"
 "http://www.w3.org/TR/2001/REC-SVG-20010904/DTD/svg10.dtd">
<svg version="1.0" xmlns="http://www.w3.org/2000/svg"
 width="1000.000000pt" height="1000.000000pt" viewBox="0 0 1000.000000 1000.000000"
 preserveAspectRatio="xMidYMid meet">

<g transform="translate(0.000000,1000.000000) scale(0.100000,-0.100000)"
fill="white" stroke="none">
<path d="M4920 9070 c0 -6 -47 -10 -120 -10 -73 0 -120 -4 -120 -10 0 -5 -22
-10 -50 -10 -27 0 -50 -4 -50 -10 0 -5 -18 -10 -40 -10 -22 0 -40 -4 -40 -10
0 -5 -18 -10 -40 -10 -22 0 -40 -4 -40 -10 0 -5 -13 -10 -30 -10 -16 0 -30 -4
-30 -10 0 -5 -13 -10 -30 -10 -16 0 -30 -4 -30 -10 0 -5 -13 -10 -30 -10 -16
0 -30 -4 -30 -10 0 -5 -9 -10 -20 -10 -11 0 -20 -4 -20 -10 0 -5 -13 -10 -30
-10 -16 0 -30 -4 -30 -10 0 -5 -9 -10 -20 -10 -11 0 -20 -4 -20 -10 0 -5 -9
-10 -20 -10 -11 0 -20 -4 -20 -10 0 -5 -9 -10 -20 -10 -11 0 -20 -4 -20 -10 0
-5 -9 -10 -20 -10 -11 0 -20 -4 -20 -10 0 -5 -8 -10 -18 -10 -10 0 -24 -9 -32
-20 -8 -11 -22 -20 -32 -20 -10 0 -18 -4 -18 -10 0 -5 -8 -10 -18 -10 -10 0
-24 -9 -32 -20 -8 -11 -21 -20 -28 -20 -7 0 -31 -18 -52 -40 -21 -22 -44 -40
-50 -40 -6 0 -38 -27 -70 -60 -32 -33 -64 -60 -70 -60 -14 0 -60 -46 -60 -60
0 -6 -31 -42 -70 -80 -38 -38 -70 -74 -70 -81 0 -6 -13 -24 -30 -39 -16 -15
-30 -34 -30 -42 0 -7 -9 -20 -20 -28 -11 -8 -20 -21 -20 -30 0 -9 -9 -22 -20
-30 -11 -8 -20 -21 -20 -30 0 -9 -9 -22 -20 -30 -11 -8 -20 -22 -20 -32 0 -10
-4 -18 -10 -18 -5 0 -10 -9 -10 -20 0 -11 -4 -20 -10 -20 -5 0 -10 -8 -10 -18
0 -10 -9 -24 -20 -32 -12 -8 -20 -26 -20 -42 0 -15 -4 -28 -10 -28 -5 0 -10
-9 -10 -20 0 -11 -4 -20 -10 -20 -5 0 -10 -9 -10 -20 0 -11 -4 -20 -10 -20 -5
0 -10 -9 -10 -20 0 -11 -4 -20 -10 -20 -5 0 -10 -13 -10 -30 0 -16 -4 -30 -10
-30 -5 0 -10 -13 -10 -30 0 -16 -4 -30 -10 -30 -5 0 -10 -13 -10 -30 0 -16 -4
-30 -10 -30 -5 0 -10 -18 -10 -40 0 -22 -4 -40 -10 -40 -5 0 -10 -18 -10 -40
0 -22 -4 -40 -10 -40 -5 0 -10 -18 -10 -40 0 -22 -4 -40 -10 -40 -6 0 -10 -27
-10 -60 0 -33 -4 -60 -10 -60 -7 0 -10 -245 -10 -715 l0 -715 -55 -55 c-30
-30 -59 -55 -65 -55 -6 0 -38 -27 -70 -60 -32 -33 -64 -60 -70 -60 -6 0 -29
-18 -50 -40 -21 -22 -44 -40 -50 -40 -6 0 -29 -18 -50 -40 -21 -22 -43 -40
-49 -40 -17 0 -161 -148 -161 -165 0 -8 -4 -15 -10 -15 -5 0 -10 -22 -10 -50
0 -27 -4 -50 -10 -50 -6 0 -10 -30 -10 -70 0 -40 4 -70 10 -70 6 0 10 -18 10
-40 0 -22 5 -40 10 -40 6 0 10 -9 10 -20 0 -11 5 -20 10 -20 6 0 10 -9 10 -20
0 -11 5 -20 10 -20 6 0 10 -7 10 -15 0 -19 104 -125 123 -125 7 0 19 -9 27
-20 8 -11 21 -20 30 -20 9 0 22 -9 30 -20 8 -11 21 -20 30 -20 9 0 22 -9 30
-20 8 -11 21 -20 30 -20 9 0 22 -9 30 -20 8 -11 22 -20 32 -20 10 0 18 -4 18
-10 0 -5 8 -10 18 -10 10 0 24 -9 32 -20 8 -11 22 -20 32 -20 10 0 18 -4 18
-10 0 -5 9 -10 20 -10 11 0 20 -4 20 -10 0 -5 9 -10 20 -10 11 0 20 -4 20 -10
0 -5 9 -10 20 -10 11 0 20 -4 20 -10 0 -5 14 -10 30 -10 17 0 30 -4 30 -10 0
-5 14 -10 30 -10 17 0 30 -4 30 -10 0 -6 47 -10 120 -10 73 0 120 4 120 10 0
6 14 10 30 10 17 0 30 5 30 10 0 6 9 10 20 10 11 0 20 5 20 10 0 6 9 10 20 10
11 0 20 5 20 10 0 6 9 10 20 10 11 0 20 5 20 10 0 6 9 10 20 10 11 0 20 5 20
10 0 6 8 10 18 10 10 0 24 9 32 20 8 11 22 20 32 20 10 0 18 5 18 10 0 6 8 10
18 10 10 0 24 9 32 20 8 11 22 20 32 20 10 0 18 5 18 10 0 6 8 10 18 10 10 0
24 9 32 20 8 12 26 20 42 20 15 0 28 5 28 10 0 6 40 10 100 10 60 0 100 -4
100 -10 0 -5 9 -10 20 -10 11 0 20 -4 20 -10 0 -5 7 -10 16 -10 9 0 29 -13 44
-30 15 -16 33 -30 39 -30 7 0 56 -45 111 -100 55 -55 104 -100 111 -100 6 0
24 -13 39 -30 15 -16 33 -30 40 -30 6 0 29 -18 50 -40 21 -22 44 -40 50 -40 7
0 25 -13 40 -30 15 -16 35 -30 44 -30 9 0 16 -4 16 -10 0 -5 8 -10 18 -10 10
0 24 -9 32 -20 8 -11 22 -20 32 -20 10 0 18 -4 18 -10 0 -5 9 -10 20 -10 11 0
20 -4 20 -10 0 -5 14 -10 30 -10 17 0 30 -4 30 -10 0 -6 27 -10 60 -10 33 0
60 -4 60 -10 0 -5 18 -10 40 -10 22 0 40 5 40 10 0 6 27 10 60 10 33 0 60 4
60 10 0 6 14 10 30 10 17 0 30 5 30 10 0 6 9 10 20 10 11 0 20 5 20 10 0 6 7
10 16 10 9 0 29 14 44 30 15 17 33 30 40 30 6 0 33 23 60 50 27 28 54 50 60
50 6 0 29 18 50 40 21 22 44 40 50 40 7 0 25 14 40 30 15 17 33 30 39 30 7 0
43 32 81 70 38 39 74 70 80 70 6 0 29 18 50 40 21 22 45 40 52 40 7 0 20 9 28
20 8 12 26 20 42 20 15 0 28 5 28 10 0 6 30 10 70 10 40 0 70 -4 70 -10 0 -5
14 -10 30 -10 17 0 30 -4 30 -10 0 -5 9 -10 20 -10 11 0 20 -4 20 -10 0 -5 9
-10 20 -10 11 0 20 -4 20 -10 0 -5 9 -10 20 -10 11 0 20 -4 20 -10 0 -5 9 -10
20 -10 11 0 20 -4 20 -10 0 -5 8 -10 18 -10 10 0 24 -9 32 -20 8 -11 21 -20
30 -20 9 0 22 -9 30 -20 8 -11 22 -20 32 -20 10 0 18 -4 18 -10 0 -5 8 -10 18
-10 10 0 24 -9 32 -20 8 -11 22 -20 32 -20 10 0 18 -4 18 -10 0 -5 9 -10 20
-10 11 0 20 -4 20 -10 0 -5 18 -10 40 -10 22 0 40 -4 40 -10 0 -6 47 -10 120
-10 73 0 120 4 120 10 0 6 14 10 30 10 17 0 30 5 30 10 0 6 14 10 30 10 17 0
30 5 30 10 0 6 8 10 18 10 10 0 24 9 32 20 8 11 21 20 30 20 9 0 22 9 30 20 8
11 22 20 32 20 10 0 18 5 18 10 0 6 7 10 16 10 9 0 29 14 44 30 15 17 34 30
42 30 7 0 20 9 28 20 8 11 21 20 30 20 9 0 22 9 30 20 8 11 21 20 30 20 9 0
22 9 30 20 8 11 20 20 27 20 17 0 123 106 123 123 0 7 9 19 20 27 12 8 20 26
20 42 0 15 5 28 10 28 6 0 10 14 10 30 0 17 5 30 10 30 6 0 10 37 10 90 0 53
-4 90 -10 90 -5 0 -10 18 -10 40 0 22 -4 40 -10 40 -5 0 -10 9 -10 20 0 11 -4
20 -10 20 -5 0 -10 7 -10 15 0 18 -64 85 -81 85 -6 0 -24 14 -39 30 -15 17
-33 30 -40 30 -7 0 -25 14 -40 30 -15 17 -33 30 -40 30 -6 0 -29 18 -50 40
-21 22 -43 40 -49 40 -6 0 -63 52 -126 115 -86 85 -115 121 -115 140 0 14 -5
25 -10 25 -8 0 -10 97 -9 300 0 171 5 300 10 300 5 0 9 36 9 80 0 47 -4 80
-10 80 -6 0 -10 117 -10 330 0 213 -4 330 -10 330 -6 0 -10 27 -10 60 0 33 -4
60 -10 60 -5 0 -10 23 -10 50 0 28 -4 50 -10 50 -5 0 -10 18 -10 40 0 22 -4
40 -10 40 -5 0 -10 14 -10 30 0 17 -4 30 -10 30 -5 0 -10 14 -10 30 0 17 -4
30 -10 30 -5 0 -10 14 -10 30 0 17 -4 30 -10 30 -5 0 -10 9 -10 20 0 11 -4 20
-10 20 -5 0 -10 14 -10 30 0 17 -4 30 -10 30 -5 0 -10 9 -10 20 0 11 -4 20
-10 20 -5 0 -10 9 -10 20 0 11 -4 20 -10 20 -5 0 -10 8 -10 18 0 10 -9 24 -20
32 -11 8 -20 22 -20 32 0 10 -4 18 -10 18 -5 0 -10 9 -10 20 0 11 -4 20 -10
20 -5 0 -10 7 -10 16 0 9 -13 29 -30 44 -16 15 -30 35 -30 44 0 9 -4 16 -10
16 -5 0 -10 7 -10 16 0 9 -13 29 -30 44 -16 15 -30 33 -30 40 0 6 -18 29 -40
50 -22 21 -40 43 -40 49 0 15 -226 241 -241 241 -6 0 -28 18 -49 40 -21 22
-44 40 -50 40 -7 0 -25 14 -40 30 -15 17 -34 30 -42 30 -7 0 -20 9 -28 20 -8
11 -22 20 -32 20 -10 0 -18 5 -18 10 0 6 -8 10 -18 10 -10 0 -24 9 -32 20 -8
11 -22 20 -32 20 -10 0 -18 5 -18 10 0 6 -9 10 -20 10 -11 0 -20 5 -20 10 0 6
-9 10 -20 10 -11 0 -20 5 -20 10 0 6 -9 10 -20 10 -11 0 -20 5 -20 10 0 6 -13
10 -30 10 -16 0 -30 5 -30 10 0 6 -9 10 -20 10 -11 0 -20 5 -20 10 0 6 -13 10
-30 10 -16 0 -30 5 -30 10 0 6 -9 10 -20 10 -11 0 -20 5 -20 10 0 6 -13 10
-30 10 -16 0 -30 5 -30 10 0 6 -18 10 -40 10 -22 0 -40 5 -40 10 0 6 -18 10
-40 10 -22 0 -40 5 -40 10 0 6 -27 10 -60 10 -33 0 -60 4 -60 10 0 6 -41 10
-104 10 -59 0 -108 4 -111 10 -3 6 -46 10 -96 10 -53 0 -89 -4 -89 -10z m340
-180 c0 -6 30 -10 70 -10 40 0 70 -4 70 -10 0 -5 14 -10 30 -10 17 0 30 -4 30
-10 0 -5 18 -10 40 -10 22 0 40 -4 40 -10 0 -5 18 -10 40 -10 22 0 40 -4 40
-10 0 -5 9 -10 20 -10 11 0 20 -4 20 -10 0 -5 14 -10 30 -10 17 0 30 -4 30
-10 0 -5 9 -10 20 -10 11 0 20 -4 20 -10 0 -5 9 -10 20 -10 11 0 20 -4 20 -10
0 -5 9 -10 20 -10 11 0 20 -4 20 -10 0 -5 9 -10 20 -10 11 0 20 -4 20 -10 0
-5 9 -10 20 -10 11 0 20 -4 20 -10 0 -5 8 -10 18 -10 10 0 24 -9 32 -20 8 -11
22 -20 32 -20 10 0 18 -4 18 -10 0 -5 7 -10 16 -10 9 0 29 -13 44 -30 15 -16
33 -30 40 -30 7 0 25 -13 40 -30 15 -16 33 -30 39 -30 14 0 221 -206 221 -221
0 -5 23 -32 50 -59 28 -27 50 -54 50 -60 0 -7 14 -25 30 -40 17 -15 30 -35 30
-44 0 -9 5 -16 10 -16 6 0 10 -8 10 -18 0 -10 9 -24 20 -32 11 -8 20 -21 20
-30 0 -9 9 -22 20 -30 11 -8 20 -22 20 -32 0 -10 5 -18 10 -18 6 0 10 -9 10
-20 0 -11 5 -20 10 -20 6 0 10 -9 10 -20 0 -11 5 -20 10 -20 6 0 10 -9 10 -20
0 -11 5 -20 10 -20 6 0 10 -9 10 -20 0 -11 5 -20 10 -20 6 0 10 -9 10 -20 0
-11 5 -20 10 -20 6 0 10 -13 10 -30 0 -16 5 -30 10 -30 6 0 10 -9 10 -20 0
-11 5 -20 10 -20 6 0 10 -13 10 -30 0 -16 5 -30 10 -30 6 0 10 -13 10 -30 0
-16 5 -30 10 -30 6 0 10 -18 10 -40 0 -22 5 -40 10 -40 6 0 10 -22 10 -50 0
-27 5 -50 10 -50 6 0 10 -27 10 -60 0 -33 4 -60 10 -60 7 0 10 -243 10 -710 0
-467 3 -710 10 -710 6 0 10 -13 10 -30 0 -16 5 -30 10 -30 6 0 10 -7 10 -15 0
-17 304 -325 321 -325 6 0 28 -18 49 -40 21 -22 44 -40 50 -40 7 0 25 -13 40
-30 15 -16 33 -30 39 -30 6 0 32 -20 56 -45 36 -36 45 -51 45 -80 0 -19 5 -35
10 -35 6 0 10 -13 10 -30 0 -16 -4 -30 -10 -30 -5 0 -10 -22 -10 -50 0 -27 -4
-50 -10 -50 -5 0 -10 -7 -10 -15 0 -19 -84 -105 -103 -105 -7 0 -19 -9 -27
-20 -8 -11 -21 -20 -30 -20 -9 0 -22 -9 -30 -20 -8 -11 -21 -20 -30 -20 -9 0
-22 -9 -30 -20 -8 -11 -21 -20 -30 -20 -9 0 -22 -9 -30 -20 -8 -11 -21 -20
-30 -20 -9 0 -22 -9 -30 -20 -8 -11 -21 -20 -30 -20 -9 0 -22 -9 -30 -20 -8
-11 -22 -20 -32 -20 -10 0 -18 -4 -18 -10 0 -5 -13 -10 -30 -10 -16 0 -30 -4
-30 -10 0 -5 -13 -10 -30 -10 -16 0 -30 -4 -30 -10 0 -6 -30 -10 -70 -10 -40
0 -70 4 -70 10 0 6 -18 10 -40 10 -22 0 -40 5 -40 10 0 6 -9 10 -20 10 -11 0
-20 5 -20 10 0 6 -9 10 -20 10 -11 0 -20 5 -20 10 0 6 -8 10 -18 10 -10 0 -24
9 -32 20 -8 11 -21 20 -30 20 -9 0 -22 9 -30 20 -8 11 -21 20 -30 20 -9 0 -22
9 -30 20 -8 11 -22 20 -32 20 -10 0 -18 5 -18 10 0 6 -8 10 -18 10 -10 0 -24
9 -32 20 -8 11 -22 20 -32 20 -10 0 -18 5 -18 10 0 6 -13 10 -30 10 -16 0 -30
5 -30 10 0 6 -13 10 -30 10 -16 0 -30 5 -30 10 0 6 -43 10 -110 10 -67 0 -110
-4 -110 -10 0 -5 -18 -10 -40 -10 -22 0 -40 -4 -40 -10 0 -5 -9 -10 -20 -10
-11 0 -20 -4 -20 -10 0 -5 -8 -10 -18 -10 -10 0 -24 -9 -32 -20 -8 -11 -21
-20 -30 -20 -9 0 -22 -9 -30 -20 -8 -11 -20 -20 -28 -20 -7 0 -57 -45 -112
-100 -55 -55 -104 -100 -110 -100 -6 0 -42 -31 -80 -70 -38 -38 -74 -70 -81
-70 -6 0 -24 -13 -39 -30 -15 -16 -34 -30 -42 -30 -7 0 -20 -9 -28 -20 -8 -11
-22 -20 -32 -20 -10 0 -18 -4 -18 -10 0 -5 -9 -10 -20 -10 -11 0 -20 -4 -20
-10 0 -5 -9 -10 -20 -10 -11 0 -20 -4 -20 -10 0 -6 -47 -10 -120 -10 -73 0
-120 4 -120 10 0 6 -9 10 -20 10 -11 0 -20 5 -20 10 0 6 -9 10 -20 10 -11 0
-20 5 -20 10 0 6 -7 10 -16 10 -9 0 -29 14 -44 30 -15 17 -34 30 -42 30 -7 0
-20 9 -28 20 -8 11 -21 20 -28 20 -8 0 -27 14 -42 30 -15 17 -33 30 -40 30 -6
0 -38 27 -70 60 -32 33 -64 60 -70 60 -6 0 -46 36 -90 80 -44 44 -84 80 -91
80 -6 0 -24 14 -39 30 -15 17 -35 30 -44 30 -9 0 -16 5 -16 10 0 6 -9 10 -20
10 -11 0 -20 5 -20 10 0 6 -9 10 -20 10 -11 0 -20 5 -20 10 0 6 -18 10 -40 10
-22 0 -40 5 -40 10 0 6 -33 10 -80 10 -47 0 -80 -4 -80 -10 0 -5 -13 -10 -30
-10 -16 0 -30 -4 -30 -10 0 -5 -9 -10 -20 -10 -11 0 -20 -4 -20 -10 0 -5 -9
-10 -20 -10 -11 0 -20 -4 -20 -10 0 -5 -9 -10 -20 -10 -11 0 -20 -4 -20 -10 0
-5 -9 -10 -20 -10 -11 0 -20 -4 -20 -10 0 -5 -9 -10 -20 -10 -11 0 -20 -4 -20
-10 0 -5 -8 -10 -18 -10 -10 0 -24 -9 -32 -20 -8 -11 -21 -20 -30 -20 -9 0
-22 -9 -30 -20 -8 -11 -22 -20 -32 -20 -10 0 -18 -4 -18 -10 0 -5 -8 -10 -18
-10 -10 0 -24 -9 -32 -20 -8 -12 -26 -20 -42 -20 -15 0 -28 -4 -28 -10 0 -5
-9 -10 -20 -10 -11 0 -20 -4 -20 -10 0 -6 -40 -10 -100 -10 -60 0 -100 4 -100
10 0 6 -13 10 -30 10 -16 0 -30 5 -30 10 0 6 -9 10 -20 10 -11 0 -20 5 -20 10
0 6 -9 10 -20 10 -11 0 -20 5 -20 10 0 6 -8 10 -18 10 -10 0 -24 9 -32 20 -8
11 -21 20 -30 20 -9 0 -22 9 -30 20 -8 11 -21 20 -30 20 -9 0 -22 9 -30 20 -8
11 -22 20 -32 20 -10 0 -18 5 -18 10 0 6 -8 10 -18 10 -10 0 -24 9 -32 20 -8
11 -21 20 -30 20 -9 0 -22 9 -30 20 -8 11 -21 20 -30 20 -9 0 -22 9 -30 20 -8
11 -24 20 -35 21 -11 0 -14 3 -7 6 8 3 2 14 -18 33 -16 15 -30 35 -30 44 0 9
-4 16 -10 16 -5 0 -10 14 -10 30 0 17 -4 30 -10 30 -6 0 -10 30 -10 70 0 40 4
70 10 70 6 0 10 7 10 16 0 18 24 44 41 44 6 0 19 9 28 19 10 11 24 21 31 23 8
2 36 24 62 51 25 26 52 47 58 47 6 0 33 23 60 50 27 28 54 50 59 50 17 0 261
248 261 265 0 8 5 15 10 15 6 0 10 14 10 30 0 17 5 30 10 30 7 0 10 247 10
720 0 473 3 720 10 720 6 0 10 27 10 60 0 33 4 60 10 60 6 0 10 23 10 50 0 28
5 50 10 50 6 0 10 14 10 30 0 17 5 30 10 30 6 0 10 18 10 40 0 22 5 40 10 40
6 0 10 9 10 20 0 11 5 20 10 20 6 0 10 14 10 30 0 17 5 30 10 30 6 0 10 9 10
20 0 11 5 20 10 20 6 0 10 9 10 20 0 11 5 20 10 20 6 0 10 9 10 20 0 11 5 20
10 20 6 0 10 9 10 20 0 11 5 20 10 20 6 0 10 9 10 20 0 11 5 20 10 20 6 0 10
9 10 20 0 11 5 20 10 20 6 0 10 8 10 18 0 10 9 24 20 32 11 8 20 21 20 30 0 9
9 22 20 30 11 8 20 21 20 30 0 9 9 22 20 30 11 8 20 21 20 30 0 9 9 22 20 30
11 8 20 21 20 28 0 7 18 31 40 52 22 21 40 43 40 49 0 15 186 201 201 201 6 0
28 18 49 40 21 22 44 40 50 40 7 0 25 14 40 30 15 17 34 30 42 30 7 0 20 9 28
20 8 11 22 20 32 20 10 0 18 5 18 10 0 6 8 10 18 10 10 0 24 9 32 20 8 11 22
20 32 20 10 0 18 5 18 10 0 6 9 10 20 10 11 0 20 5 20 10 0 6 9 10 20 10 11 0
20 5 20 10 0 6 14 10 30 10 17 0 30 5 30 10 0 6 9 10 20 10 11 0 20 5 20 10 0
6 14 10 30 10 17 0 30 5 30 10 0 6 14 10 30 10 17 0 30 5 30 10 0 6 14 10 30
10 17 0 30 5 30 10 0 6 14 10 30 10 17 0 30 5 30 10 0 6 18 10 40 10 22 0 40
5 40 10 0 6 33 10 80 10 47 0 80 4 80 10 0 6 90 10 250 10 160 0 250 -4 250
-10z"/>
<path d="M4160 8250 c0 -5 -13 -10 -30 -10 -16 0 -30 -4 -30 -10 0 -5 -13 -10
-30 -10 -16 0 -30 -4 -30 -10 0 -5 -9 -10 -20 -10 -11 0 -20 -4 -20 -10 0 -5
-9 -10 -20 -10 -11 0 -20 -4 -20 -10 0 -5 -9 -10 -20 -10 -11 0 -20 -4 -20
-10 0 -5 -7 -10 -15 -10 -9 0 -27 -11 -40 -25 -29 -28 -35 -97 -11 -121 17
-16 106 -20 106 -4 0 6 8 10 18 10 10 0 24 9 32 20 8 11 22 20 32 20 10 0 18
5 18 10 0 6 9 10 20 10 11 0 20 5 20 10 0 6 18 10 40 10 22 0 40 5 40 10 0 6
30 10 70 10 63 0 70 2 70 20 0 11 5 20 10 20 21 0 10 70 -15 95 -21 22 -33 25
-90 25 -37 0 -65 -4 -65 -10z"/>
<path d="M5673 8225 c-32 -33 -45 -85 -23 -85 6 0 10 -9 10 -20 0 -13 7 -20
19 -20 11 0 22 -6 25 -12 5 -10 7 -10 12 0 7 14 64 17 64 2 0 -5 23 -10 50
-10 28 0 50 -4 50 -10 0 -5 9 -10 20 -10 11 0 20 -4 20 -10 0 -5 8 -10 18 -10
10 0 24 -9 32 -20 8 -11 22 -20 32 -20 10 0 18 -4 18 -10 0 -5 13 -10 28 -10
15 0 33 -5 40 -12 9 -9 12 -9 12 0 0 7 9 12 20 12 13 0 20 7 20 20 0 11 5 20
10 20 6 0 10 16 10 35 0 37 -35 85 -62 85 -8 0 -20 9 -28 20 -8 11 -22 20 -32
20 -10 0 -18 5 -18 10 0 6 -13 10 -30 10 -16 0 -30 5 -30 10 0 6 -13 10 -30
10 -16 0 -30 5 -30 10 0 6 -18 10 -40 10 -22 0 -40 5 -40 10 0 6 -25 10 -57 9
-52 0 -61 -4 -90 -34z"/>
<path d="M4160 7810 c0 -5 -18 -10 -40 -10 -22 0 -40 -4 -40 -10 0 -5 -9 -10
-20 -10 -11 0 -20 -4 -20 -10 0 -5 -9 -10 -20 -10 -11 0 -20 -4 -20 -10 0 -5
-8 -10 -18 -10 -10 0 -24 -9 -32 -20 -8 -11 -20 -20 -27 -20 -19 0 -103 -86
-103 -105 0 -8 -4 -15 -10 -15 -5 0 -10 -9 -10 -20 0 -11 -4 -20 -10 -20 -5 0
-10 -9 -10 -20 0 -11 -4 -20 -10 -20 -5 0 -10 -9 -10 -20 0 -11 -4 -20 -10
-20 -5 0 -10 -13 -10 -30 0 -16 -4 -30 -10 -30 -5 0 -10 -18 -10 -40 0 -22 -4
-40 -10 -40 -6 0 -10 -43 -10 -110 0 -67 4 -110 10 -110 6 0 10 -18 10 -40 0
-22 5 -40 10 -40 6 0 10 -13 10 -30 0 -16 5 -30 10 -30 6 0 10 -9 10 -20 0
-11 5 -20 10 -20 6 0 10 -7 10 -16 0 -9 14 -29 30 -44 17 -15 30 -33 30 -40 0
-15 69 -80 85 -80 6 0 17 -9 25 -20 8 -11 22 -20 32 -20 10 0 18 -4 18 -10 0
-5 9 -10 20 -10 11 0 20 -4 20 -10 0 -5 14 -10 30 -10 17 0 30 -4 30 -10 0 -6
27 -10 60 -10 35 0 60 -4 60 -10 0 -7 20 -10 50 -9 28 2 50 6 50 11 0 4 23 8
50 8 28 0 50 5 50 10 0 6 14 10 30 10 17 0 30 5 30 10 0 6 8 10 18 10 10 0 24
9 32 20 8 11 20 20 27 20 17 0 163 146 163 163 0 7 9 19 20 27 11 8 20 22 20
32 0 10 5 18 10 18 6 0 10 14 10 30 0 17 5 30 10 30 6 0 10 14 10 30 0 17 5
30 10 30 6 0 10 53 10 140 0 87 -4 140 -10 140 -5 0 -10 14 -10 30 0 17 -4 30
-10 30 -5 0 -10 14 -10 30 0 17 -4 30 -10 30 -5 0 -10 8 -10 18 0 10 -9 24
-20 32 -11 8 -20 20 -20 27 0 17 -146 163 -163 163 -7 0 -19 9 -27 20 -8 11
-22 20 -32 20 -10 0 -18 5 -18 10 0 6 -13 10 -30 10 -16 0 -30 5 -30 10 0 6
-18 10 -40 10 -22 0 -40 5 -40 10 0 6 -37 10 -90 10 -53 0 -90 -4 -90 -10z
m-5 -235 c14 -13 25 -31 25 -40 0 -8 5 -15 10 -15 6 0 10 -22 10 -50 0 -27 -4
-50 -10 -50 -5 0 -10 -11 -10 -25 0 -14 -11 -37 -25 -50 -21 -22 -33 -25 -95
-25 -62 0 -74 3 -95 25 -14 13 -25 31 -25 40 0 8 -4 15 -10 15 -5 0 -10 18
-10 40 0 22 5 40 10 40 6 0 10 9 10 20 0 11 5 20 10 20 6 0 10 9 10 20 0 13 7
20 18 20 10 0 24 9 32 20 22 31 113 28 145 -5z m-189 -309 c8 -8 14 -29 14
-46 0 -41 -20 -60 -64 -60 -29 0 -36 4 -36 20 0 11 -4 20 -10 20 -5 0 -10 9
-10 20 0 11 5 20 10 20 6 0 10 9 10 20 0 16 7 20 36 20 19 0 42 -6 50 -14z"/>
<path d="M5620 7810 c0 -5 -18 -10 -40 -10 -22 0 -40 -4 -40 -10 0 -5 -9 -10
-20 -10 -11 0 -20 -4 -20 -10 0 -5 -8 -10 -18 -10 -10 0 -24 -9 -32 -20 -8
-11 -20 -20 -27 -20 -19 0 -163 -146 -163 -165 0 -8 -4 -15 -10 -15 -5 0 -10
-9 -10 -20 0 -11 -4 -20 -10 -20 -5 0 -10 -9 -10 -20 0 -11 -4 -20 -10 -20 -5
0 -10 -13 -10 -30 0 -16 -4 -30 -10 -30 -5 0 -10 -18 -10 -40 0 -22 -4 -40
-10 -40 -6 0 -10 -40 -10 -100 0 -60 4 -100 10 -100 6 0 10 -22 10 -50 0 -27
5 -50 10 -50 6 0 10 -9 10 -20 0 -11 5 -20 10 -20 6 0 10 -9 10 -20 0 -11 5
-20 10 -20 6 0 10 -9 10 -20 0 -11 5 -20 10 -20 6 0 10 -7 10 -15 0 -20 165
-185 185 -185 8 0 15 -4 15 -10 0 -5 9 -10 20 -10 11 0 20 -4 20 -10 0 -5 14
-10 30 -10 17 0 30 -4 30 -10 0 -5 22 -10 49 -10 28 0 53 -4 56 -10 3 -5 40
-10 81 -10 43 0 74 4 74 10 0 6 23 10 50 10 28 0 50 5 50 10 0 6 9 10 20 10
11 0 20 5 20 10 0 6 9 10 20 10 11 0 20 5 20 10 0 6 7 10 16 10 9 0 29 14 44
30 15 17 33 30 40 30 15 0 40 25 40 40 0 7 14 25 30 40 17 15 30 34 30 42 0 7
9 20 20 28 11 8 20 22 20 32 0 10 5 18 10 18 6 0 10 13 10 29 0 16 4 31 10 33
5 2 10 20 12 41 1 20 6 37 10 37 4 0 8 50 8 110 0 67 -4 110 -10 110 -5 0 -10
23 -10 50 0 28 -4 50 -10 50 -5 0 -10 9 -10 20 0 11 -4 20 -10 20 -5 0 -10 9
-10 20 0 11 -4 20 -10 20 -5 0 -10 9 -10 20 0 11 -4 20 -10 20 -5 0 -10 7 -10
15 0 19 -124 145 -143 145 -7 0 -19 9 -27 20 -8 11 -22 20 -32 20 -10 0 -18 5
-18 10 0 6 -9 10 -20 10 -11 0 -20 5 -20 10 0 6 -9 10 -20 10 -11 0 -20 5 -20
10 0 6 -18 10 -40 10 -22 0 -40 5 -40 10 0 6 -40 10 -100 10 -60 0 -100 -4
-100 -10z m-5 -255 c14 -13 25 -31 25 -40 0 -8 5 -15 10 -15 6 0 10 -22 10
-50 0 -27 -4 -50 -10 -50 -5 0 -10 -7 -10 -15 0 -9 -16 -31 -35 -50 -29 -30
-41 -35 -80 -35 -25 0 -45 5 -45 10 0 6 -7 10 -15 10 -9 0 -27 11 -40 25 -14
13 -25 31 -25 40 0 8 -4 15 -10 15 -5 0 -10 18 -10 40 0 22 5 40 10 40 6 0 10
7 10 15 0 9 15 31 33 50 30 31 37 34 95 34 54 1 66 -2 87 -24z m-189 -289 c8
-8 14 -29 14 -46 0 -17 -6 -38 -14 -46 -8 -8 -29 -14 -46 -14 -17 0 -38 6 -46
14 -17 18 -18 72 -1 91 16 19 74 19 93 1z"/>
<path d="M3653 6525 c-19 -21 -18 -232 1 -251 23 -22 66 -18 66 6 0 11 5 20
10 20 17 0 13 209 -4 226 -18 18 -57 18 -73 -1z"/>
<path d="M3833 6525 c-8 -8 -13 -41 -13 -80 0 -37 -4 -65 -10 -65 -5 0 -10
-13 -10 -30 0 -16 5 -30 10 -30 6 0 10 -12 10 -26 0 -26 20 -54 40 -54 6 0 22
11 35 25 24 23 25 31 25 135 0 120 -8 140 -52 140 -13 -1 -29 -7 -35 -15z"/>
<path d="M4040 6530 c0 -5 -9 -10 -20 -10 -19 0 -20 -7 -20 -105 0 -101 1
-107 27 -133 17 -17 28 -22 31 -14 2 7 12 12 23 12 12 0 19 7 19 20 0 11 5 20
10 20 6 0 10 33 10 80 0 47 -4 80 -10 80 -5 0 -10 9 -10 20 0 13 -7 20 -20 20
-11 0 -20 5 -20 10 0 6 -4 10 -10 10 -5 0 -10 -4 -10 -10z"/>
<path d="M4620 6530 c0 -5 -9 -10 -20 -10 -13 0 -20 -7 -20 -20 0 -11 -4 -20
-10 -20 -5 0 -10 -13 -10 -30 0 -16 5 -30 10 -30 6 0 10 -9 10 -20 0 -11 5
-20 10 -20 6 0 10 -8 10 -18 0 -10 9 -24 20 -32 11 -8 20 -20 20 -28 0 -16 45
-62 61 -62 6 0 24 -13 39 -30 17 -18 38 -30 54 -30 14 0 26 -4 26 -10 0 -5 12
-10 26 -10 14 0 23 -4 20 -8 -3 -5 16 -9 42 -11 26 -1 49 -6 50 -12 5 -12 102
-12 102 1 0 6 18 10 40 10 22 0 40 5 40 10 0 6 14 10 30 10 17 0 30 5 30 10 0
6 8 10 18 10 10 0 24 9 32 20 8 11 20 20 27 20 16 0 123 105 123 120 0 7 7 18
15 27 8 8 13 19 10 24 -4 5 -1 9 4 9 16 0 13 89 -3 106 -31 30 -126 11 -126
-26 0 -7 -13 -25 -30 -40 -16 -15 -30 -33 -30 -40 0 -16 -25 -40 -42 -40 -8 0
-20 -9 -28 -20 -8 -11 -22 -20 -32 -20 -10 0 -18 -4 -18 -10 0 -6 -43 -10
-110 -10 -67 0 -110 4 -110 10 0 6 -9 10 -20 10 -11 0 -20 5 -20 10 0 6 -7 10
-15 10 -20 0 -105 85 -105 105 0 8 -4 15 -10 15 -5 0 -10 7 -10 16 0 20 -24
44 -44 44 -9 0 -16 5 -16 10 0 6 -9 10 -20 10 -11 0 -20 -4 -20 -10z"/>
<path d="M5960 6520 c0 -11 -4 -20 -10 -20 -6 0 -10 -33 -10 -80 0 -47 4 -80
10 -80 6 0 10 -13 10 -30 0 -28 3 -30 36 -30 19 0 42 7 51 15 8 8 19 13 24 10
5 -4 9 12 9 34 0 23 5 41 10 41 6 0 10 18 10 40 0 22 -4 40 -10 40 -5 0 -10 7
-10 16 0 28 -54 64 -95 64 -18 0 -25 -5 -25 -20z"/>
<path d="M6233 6525 c-7 -8 -13 -21 -13 -30 0 -8 -4 -15 -10 -15 -5 0 -10 -9
-10 -20 0 -11 5 -20 10 -20 6 0 10 -32 10 -76 0 -81 11 -104 50 -104 25 0 50
22 50 44 0 9 5 16 10 16 6 0 10 37 10 90 0 53 -4 90 -10 90 -5 0 -10 9 -10 20
0 17 -7 20 -37 20 -21 -1 -44 -7 -50 -15z"/>
<path d="M3983 5135 c-37 -39 -32 -97 12 -140 33 -34 65 -46 65 -25 0 6 7 10
16 10 29 0 44 27 44 80 0 53 -15 80 -44 80 -9 0 -16 5 -16 10 0 19 -55 9 -77
-15z"/>
<path d="M3693 5105 c-26 -27 -33 -43 -33 -75 0 -55 17 -70 80 -70 64 0 100
30 100 85 0 19 -4 35 -10 35 -5 0 -10 9 -10 20 0 13 -7 20 -20 20 -11 0 -20 5
-20 10 0 24 -56 7 -87 -25z"/>
</g>
</svg>
